# xmcd
#
# Track frame offsets:
#	150
#	21362
#	41387
#	58917
#	76375
#	95836
#	116292
#	138739
#	157471
#	180280
#	201955
#
# Disc length: 2995 seconds
#
# Revision: 1
# Processed by: cddbd v1.4PL0 Copyright (c) Steve Scherf et al.
# Submitted via: audiograbber 1.82.01
#
DISCID=9b0bb10b
DTITLE=Ehab Toufic - Leh El Khisam
DYEAR=1900
DGENRE=
TTITLE0=Oul Kida
TTITLE1=Elli Mdawebni
TTITLE2=Dak El Kaleb
TTITLE3=3al Jirah Kader
TTITLE4=Hou
TTITLE5=Leh El Khisam
TTITLE6=Malak Hares
TTITLE7=Awel Kilma
TTITLE8=Ya Mdawi
TTITLE9=Salamtillo
TTITLE10=Dam3eti Leh
EXTD=
EXTT0=
EXTT1=
EXTT2=
EXTT3=
EXTT4=
EXTT5=
EXTT6=
EXTT7=
EXTT8=
EXTT9=
EXTT10=
PLAYORDER=
